<?xml version="1.0" encoding="UTF-8"?><svg xmlns="http://www.w3.org/2000/svg" viewBox="0 0 100 100"><defs><style>.n{fill:none;stroke:#000;stroke-width:3px;}</style></defs><g id="a"/><g id="b"><path class="n" d="M60.52,67.65h-25.49v-2.55c0-4.33,.49-5.86,1.48-8.56,.98-2.7,2.45-5.17,4.39-7.41,1.95-2.23,6.31-6.17,13.11-11.8,3.62-2.95,5.43-5.65,5.43-8.12s-.73-4.37-2.18-5.73c-1.45-1.36-3.66-2.05-6.61-2.05-3.18,0-5.8,1.05-7.88,3.15-2.08,2.1-3.41,5.16-3.99,10.39H12.77c.89-9.57,4.37-19.88,10.43-25.71C29.25,3.42,38.54,.5,51.06,.5c9.75,0,17.61,2.04,23.61,6.1,8.14,5.5,12.21,12.84,12.21,22,0,3.8-1.05,7.47-3.15,11-2.1,3.53-6.4,7.85-12.88,12.94-4.52,3.58-7.37,6.45-8.55,8.62-1.19,2.17-1.78,3-1.78,6.48Zm-25.36,8.77h25.3v24.08h-25.3v-24.08Z"/></g><g id="c"/><g id="d"/><g id="e"/><g id="f"/><g id="g"/><g id="h"/><g id="i"/><g id="j"/><g id="k"/><g id="l"/><g id="m"/></svg>